HIERARCHY
ROOT Root
{
  OFFSET 0.0 0.0 0.0
  CHANNELS 6 Xposition Yposition Zposition Zrotation Yrotation Xrotation
  JOINT Hips
  {
    OFFSET 0.0 100.0 0.0
    CHANNELS 6 Xposition Yposition Zposition Zrotation Yrotation Xrotation
    JOINT Spine1
    {
      OFFSET 5.003913 -0.037094 -0.013727
      CHANNELS 3 Zrotation Yrotation Xrotation
      JOINT Spine2
      {
        OFFSET 7.125363 -1e-06 0.0
        CHANNELS 3 Zrotation Yrotation Xrotation
        JOINT Chest
        {
          OFFSET 7.594027 1e-06 0.0
          CHANNELS 3 Zrotation Yrotation Xrotation
          JOINT Neck1
          {
            OFFSET 26.313086 -0.460272 -0.181672
            CHANNELS 3 Zrotation Yrotation Xrotation
            JOINT Neck2
            {
              OFFSET 8.045911 0.0 0.0
              CHANNELS 3 Zrotation Yrotation Xrotation
              JOINT Head
              {
                OFFSET 6.432774 0.0 0.0
                CHANNELS 3 Zrotation Yrotation Xrotation
                JOINT HeadEnd
                {
                  OFFSET 16.169773 0.06451 0.00362
                  CHANNELS 3 Zrotation Yrotation Xrotation
                }
                JOINT Jaw
                {
                  OFFSET 0.108741 3.12938 0.002639
                  CHANNELS 3 Zrotation Yrotation Xrotation
                }
                JOINT LeftEye
                {
                  OFFSET 4.45173 8.166359 3.206392
                  CHANNELS 3 Zrotation Yrotation Xrotation
                }
                JOINT RightEye
                {
                  OFFSET 4.436895 8.135758 -3.222429
                  CHANNELS 3 Zrotation Yrotation Xrotation
                }
              }
            }
          }
          JOINT LeftShoulder
          {
            OFFSET 23.218927 5.195579 1.621656
            CHANNELS 3 Zrotation Yrotation Xrotation
            JOINT LeftArm
            {
              OFFSET 15.902118 2e-06 -2e-06
              CHANNELS 3 Zrotation Yrotation Xrotation
              JOINT LeftForeArm
              {
                OFFSET 28.739307 0.0 -1e-06
                CHANNELS 3 Zrotation Yrotation Xrotation
                JOINT LeftHand
                {
                  OFFSET 27.093981 -4e-06 0.0
                  CHANNELS 3 Zrotation Yrotation Xrotation
                  JOINT LeftHandThumb1
                  {
                    OFFSET 2.276781 3.380274 0.83384
                    CHANNELS 3 Zrotation Yrotation Xrotation
                    JOINT LeftHandThumb2
                    {
                      OFFSET 4.705309 -1e-06 -1e-06
                      CHANNELS 3 Zrotation Yrotation Xrotation
                      JOINT LeftHandThumb3
                      {
                        OFFSET 2.798515 0.0 3e-06
                        CHANNELS 3 Zrotation Yrotation Xrotation
                        JOINT LeftHandThumbEnd
                        {
                          OFFSET 3.180793 4e-06 -4e-06
                          CHANNELS 3 Zrotation Yrotation Xrotation
                        }
                      }
                    }
                  }
                  JOINT LeftHandIndex1
                  {
                    OFFSET 3.247786 2.352677 0.137192
                    CHANNELS 3 Zrotation Yrotation Xrotation
                    JOINT LeftHandIndex2
                    {
                      OFFSET 6.367095 1e-06 0.0
                      CHANNELS 3 Zrotation Yrotation Xrotation
                      JOINT LeftHandIndex3
                      {
                        OFFSET 3.662364 0.0 0.0
                        CHANNELS 3 Zrotation Yrotation Xrotation
                        JOINT LeftHandIndex4
                        {
                          OFFSET 2.329242 4e-06 -4e-06
                          CHANNELS 3 Zrotation Yrotation Xrotation
                          JOINT LeftHandIndexEnd
                          {
                            OFFSET 2.767823 1e-06 0.0
                            CHANNELS 3 Zrotation Yrotation Xrotation
                          }
                        }
                      }
                    }
                  }
                  JOINT LeftHandMiddle1
                  {
                    OFFSET 3.163612 0.945023 -0.406112
                    CHANNELS 3 Zrotation Yrotation Xrotation
                    JOINT LeftHandMiddle2
                    {
                      OFFSET 6.276789 3e-06 0.0
                      CHANNELS 3 Zrotation Yrotation Xrotation
                      JOINT LeftHandMiddle3
                      {
                        OFFSET 4.35652 -1e-06 4e-06
                        CHANNELS 3 Zrotation Yrotation Xrotation
                        JOINT LeftHandMiddle4
                        {
                          OFFSET 2.996877 0.0 8e-06
                          CHANNELS 3 Zrotation Yrotation Xrotation
                          JOINT LeftHandMiddleEnd
                          {
                            OFFSET 2.323256 3e-06 -4e-06
                            CHANNELS 3 Zrotation Yrotation Xrotation
                          }
                        }
                      }
                    }
                  }
                  JOINT LeftHandRing1
                  {
                    OFFSET 2.882606 -0.309162 0.107445
                    CHANNELS 3 Zrotation Yrotation Xrotation
                    JOINT LeftHandRing2
                    {
                      OFFSET 6.033198 0.0 4e-06
                      CHANNELS 3 Zrotation Yrotation Xrotation
                      JOINT LeftHandRing3
                      {
                        OFFSET 4.350578 3e-06 0.0
                        CHANNELS 3 Zrotation Yrotation Xrotation
                        JOINT LeftHandRing4
                        {
                          OFFSET 2.651321 2e-06 -7e-06
                          CHANNELS 3 Zrotation Yrotation Xrotation
                          JOINT LeftHandRingEnd
                          {
                            OFFSET 1.937663 1e-06 -4e-06
                            CHANNELS 3 Zrotation Yrotation Xrotation
                          }
                        }
                      }
                    }
                  }
                  JOINT LeftHandPinky1
                  {
                    OFFSET 2.865315 -1.525436 0.575687
                    CHANNELS 3 Zrotation Yrotation Xrotation
                    JOINT LeftHandPinky2
                    {
                      OFFSET 5.54936 1e-06 -8e-06
                      CHANNELS 3 Zrotation Yrotation Xrotation
                      JOINT LeftHandPinky3
                      {
                        OFFSET 3.070974 0.0 -4e-06
                        CHANNELS 3 Zrotation Yrotation Xrotation
                        JOINT LeftHandPinky4
                        {
                          OFFSET 1.549672 1e-06 0.0
                          CHANNELS 3 Zrotation Yrotation Xrotation
                          JOINT LeftHandPinkyEnd
                          {
                            OFFSET 1.952123 0.0 0.0
                            CHANNELS 3 Zrotation Yrotation Xrotation
                          }
                        }
                      }
                    }
                  }
                }
              }
            }
          }
          JOINT RightShoulder
          {
            OFFSET 23.161716 5.296122 -1.380114
            CHANNELS 3 Zrotation Yrotation Xrotation
            JOINT RightArm
            {
              OFFSET -16.027195 -2e-06 1.1e-05
              CHANNELS 3 Zrotation Yrotation Xrotation
              JOINT RightForeArm
              {
                OFFSET -28.736639 4e-06 2e-06
                CHANNELS 3 Zrotation Yrotation Xrotation
                JOINT RightHand
                {
                  OFFSET -27.133619 6e-06 0.0
                  CHANNELS 3 Zrotation Yrotation Xrotation
                  JOINT RightHandThumb1
                  {
                    OFFSET -2.274328 -3.351035 -0.83067
                    CHANNELS 3 Zrotation Yrotation Xrotation
                    JOINT RightHandThumb2
                    {
                      OFFSET -4.703594 -3e-06 2e-06
                      CHANNELS 3 Zrotation Yrotation Xrotation
                      JOINT RightHandThumb3
                      {
                        OFFSET -2.794935 -4e-06 -3e-06
                        CHANNELS 3 Zrotation Yrotation Xrotation
                        JOINT RightHandThumbEnd
                        {
                          OFFSET -3.183852 4e-06 1e-06
                          CHANNELS 3 Zrotation Yrotation Xrotation
                        }
                      }
                    }
                  }
                  JOINT RightHandIndex1
                  {
                    OFFSET -3.253496 -2.33755 -0.127667
                    CHANNELS 3 Zrotation Yrotation Xrotation
                    JOINT RightHandIndex2
                    {
                      OFFSET -6.344434 0.0 0.0
                      CHANNELS 3 Zrotation Yrotation Xrotation
                      JOINT RightHandIndex3
                      {
                        OFFSET -3.654871 0.0 -8e-06
                        CHANNELS 3 Zrotation Yrotation Xrotation
                        JOINT RightHandIndex4
                        {
                          OFFSET -2.327586 -1e-06 0.0
                          CHANNELS 3 Zrotation Yrotation Xrotation
                          JOINT RightHandIndexEnd
                          {
                            OFFSET -2.770001 3e-06 8e-06
                            CHANNELS 3 Zrotation Yrotation Xrotation
                          }
                        }
                      }
                    }
                  }
                  JOINT RightHandMiddle1
                  {
                    OFFSET -3.168223 -0.944764 0.411762
                    CHANNELS 3 Zrotation Yrotation Xrotation
                    JOINT RightHandMiddle2
                    {
                      OFFSET -6.266691 -1e-06 -4e-06
                      CHANNELS 3 Zrotation Yrotation Xrotation
                      JOINT RightHandMiddle3
                      {
                        OFFSET -4.348901 0.0 0.0
                        CHANNELS 3 Zrotation Yrotation Xrotation
                        JOINT RightHandMiddle4
                        {
                          OFFSET -3.00024 2e-06 -4e-06
                          CHANNELS 3 Zrotation Yrotation Xrotation
                          JOINT RightHandMiddleEnd
                          {
                            OFFSET -2.321477 -4e-06 -4e-06
                            CHANNELS 3 Zrotation Yrotation Xrotation
                          }
                        }
                      }
                    }
                  }
                  JOINT RightHandRing1
                  {
                    OFFSET -2.885654 0.293261 -0.119232
                    CHANNELS 3 Zrotation Yrotation Xrotation
                    JOINT RightHandRing2
                    {
                      OFFSET -6.032835 -1e-06 -4e-06
                      CHANNELS 3 Zrotation Yrotation Xrotation
                      JOINT RightHandRing3
                      {
                        OFFSET -4.33881 0.0 -4e-06
                        CHANNELS 3 Zrotation Yrotation Xrotation
                        JOINT RightHandRing4
                        {
                          OFFSET -2.654903 -4e-06 -4e-06
                          CHANNELS 3 Zrotation Yrotation Xrotation
                          JOINT RightHandRingEnd
                          {
                            OFFSET -1.935122 0.0 4e-06
                            CHANNELS 3 Zrotation Yrotation Xrotation
                          }
                        }
                      }
                    }
                  }
                  JOINT RightHandPinky1
                  {
                    OFFSET -2.866241 1.503904 -0.60527
                    CHANNELS 3 Zrotation Yrotation Xrotation
                    JOINT RightHandPinky2
                    {
                      OFFSET -5.553177 -2e-06 0.0
                      CHANNELS 3 Zrotation Yrotation Xrotation
                      JOINT RightHandPinky3
                      {
                        OFFSET -3.062664 -1e-06 -4e-06
                        CHANNELS 3 Zrotation Yrotation Xrotation
                        JOINT RightHandPinky4
                        {
                          OFFSET -1.546529 2e-06 4e-06
                          CHANNELS 3 Zrotation Yrotation Xrotation
                          JOINT RightHandPinkyEnd
                          {
                            OFFSET -1.952341 0.0 -4e-06
                            CHANNELS 3 Zrotation Yrotation Xrotation
                          }
                        }
                      }
                    }
                  }
                }
              }
            }
          }
        }
      }
    }
    JOINT LeftLeg
    {
      OFFSET -8.443107 2.567604 10.043214
      CHANNELS 3 Zrotation Yrotation Xrotation
      JOINT LeftShin
      {
        OFFSET 43.229198 1e-06 -1e-06
        CHANNELS 3 Zrotation Yrotation Xrotation
        JOINT LeftFoot
        {
          OFFSET 42.298611 1e-06 1e-06
          CHANNELS 3 Zrotation Yrotation Xrotation
          JOINT LeftToeBase
          {
            OFFSET 14.165858 1e-06 0.0
            CHANNELS 3 Zrotation Yrotation Xrotation
            JOINT LeftToeEnd
            {
              OFFSET 6.7141 -0.234461 0.0
              CHANNELS 3 Zrotation Yrotation Xrotation
            }
          }
        }
      }
    }
    JOINT RightLeg
    {
      OFFSET -8.303923 2.592729 -10.047278
      CHANNELS 3 Zrotation Yrotation Xrotation
      JOINT RightShin
      {
        OFFSET -43.369682 0.0 1e-06
        CHANNELS 3 Zrotation Yrotation Xrotation
        JOINT RightFoot
        {
          OFFSET -42.260784 4e-06 2e-06
          CHANNELS 3 Zrotation Yrotation Xrotation
          JOINT RightToeBase
          {
            OFFSET -14.222245 -2e-06 -1e-06
            CHANNELS 3 Zrotation Yrotation Xrotation
            JOINT RightToeEnd
            {
              OFFSET -6.660062 0.232574 -2e-06
              CHANNELS 3 Zrotation Yrotation Xrotation
            }
          }
        }
      }
    }
  }
}
MOTION
Frames: 4
Frame Time: 0.03333333333333333
0.0 0.0 0.0 0.0 -0.0 0.0 -4.886127 46.909515 178.867798 82.049034 -48.025311 101.551933 11.674417 2.046831 -0.913674 -4.121995 0.163761 -2.655248 27.919994 6.333178 -2.129536 19.436819 -4.299028 3.272227 -2.570902 -1.070398 0.555953 -32.589706 -2.739201 1.522814 6e-06 0.0 -0.0 -0.163777 -0.072717 0.06979 -0.151158 -0.122084 0.132582 -0.139637 -0.030438 0.016984 -12.035627 -68.338676 16.810411 81.639732 -5.506629 -43.020489 15.200837 0.063884 0.145021 29.252762 65.116432 29.851427 17.636641 -26.322741 52.411213 -19.46666 -14.395602 29.410389 0.0 -8.774824 -2e-06 16.481901 -18.444403 5.729856 -0.609776 -1.795654 -3.889328 -4.807091 -11.046813 -2.937851 2e-06 -20.976021 2e-06 -5.019972 -25.03356 -4.031883 6e-06 -1e-06 1e-06 -10.634538 -5.686972 -3.565589 10.573277 -17.922955 -3.1139 2e-06 -13.821214 1e-06 -0.50178 -31.181507 -4.027016 -11.282932 -59.376183 6.933552 -13.982719 -7.150199 -2.875043 13.772733 -8.401495 -3.21824 0.347732 -34.211555 0.771657 -0.96303 -17.733372 2.62102 -0.0 0.0 0.0 -17.346424 -20.095222 -4.201783 21.757563 -1.638376 3.866431 2e-06 -6.338822 1e-06 -1.697592 -22.591749 -6.194006 -0.0 -7e-06 -3e-06 -152.978348 -84.703209 -16.102112 84.537262 -21.745018 -29.05349 23.270502 -0.191771 0.420939 54.426666 70.963203 63.351105 22.182119 -20.375895 49.933315 -16.701811 -16.74353 28.476532 -3e-06 -12.690601 -0.0 16.368563 -17.988148 2.357222 -0.105922 -1.513857 -4.275883 -5.039041 -5.612871 -2.953555 4e-06 -11.02052 -2e-06 -6.111298 -15.895329 -3.840471 -0.0 1e-06 -0.0 -10.283371 -5.68029 -4.341838 11.028293 -11.302402 -2.372632 -1.384269 -14.238577 -6.32012 -0.625438 -26.924179 -3.8276 -4.011486 -48.989342 -4.520459 -13.708527 -7.363478 -3.72094 18.141148 -14.052734 -3.242672 4e-06 -18.787268 -1e-06 -0.429712 -8.456043 2.555505 -0.0 -0.0 1e-06 -15.923538 -20.094482 -5.473586 30.41921 -7.190823 1.735928 2e-06 -8.162926 -0.0 -1.861905 -22.861467 -6.167938 -1e-06 -4e-06 -1e-06 158.434525 -5.961757 7.999939 77.162949 -1.48816 0.152661 -60.035839 3.700797 21.436451 -44.323204 1.795927 0.80649 -0.999999 -0.0 0.0 -64.254868 -4.893958 6.292836 128.072891 0.140967 0.283911 -80.179001 11.880498 11.923572 -43.338085 0.926904 1.225955 -1.000002 0.0 -0.0 
0.0 0.0 0.0 0.0 -0.0 0.0 -5.196342 46.883118 180.046783 81.154083 -48.918835 101.524506 11.496229 2.007266 -0.846162 -4.196291 0.145372 -2.421544 27.386328 6.266418 -1.800518 18.703321 -4.286586 3.313679 -2.591686 -0.956265 0.536473 -32.908424 -2.585085 1.481177 7e-06 0.0 0.0 -0.172981 -0.096504 0.083354 -0.101737 -0.143524 0.153848 -0.082631 -0.059166 0.026096 -13.527117 -67.527489 18.064043 82.619141 -6.667943 -42.600712 15.129586 -0.012068 0.131107 31.809298 66.969208 32.036644 17.636625 -26.322739 52.411213 -19.466665 -14.395602 29.410398 -1e-06 -8.774824 -0.0 16.311869 -18.277637 5.811389 -0.609776 -1.795655 -3.889328 -4.807088 -11.046811 -2.937851 5e-06 -20.976019 -1e-06 -5.019969 -25.033556 -4.031882 5e-06 -0.0 0.0 -10.634535 -5.686972 -3.565588 10.573277 -17.922955 -3.113901 3e-06 -13.821211 -0.0 -0.501776 -31.181507 -4.027015 -11.178813 -59.224468 6.856185 -13.982714 -7.150201 -2.875042 13.772731 -8.401493 -3.218242 0.347736 -34.211555 0.771654 -0.963028 -17.733372 2.62102 0.0 -0.0 -0.0 -17.346418 -20.095221 -4.201783 21.757559 -1.638376 3.866427 2e-06 -6.338822 1e-06 -1.697587 -22.591745 -6.194007 -0.0 -5e-06 -2e-06 -154.693527 -84.436058 -14.404203 83.781334 -23.082064 -28.764795 26.793901 -0.056215 0.410866 54.320293 70.673134 65.002968 22.182116 -20.375891 49.933319 -16.701815 -16.743526 28.476532 -1e-06 -12.690598 -0.0 16.492577 -18.096886 2.28646 -0.105919 -1.513852 -4.275881 -5.03904 -5.612872 -2.953556 6e-06 -11.02052 -3e-06 -6.111296 -15.89533 -3.840471 -1e-06 0.0 -1e-06 -10.283369 -5.680287 -4.341839 11.028294 -11.302404 -2.372635 -1.384268 -14.238577 -6.32012 -0.625437 -26.924183 -3.827599 -3.998756 -49.134998 -4.500482 -13.708522 -7.363471 -3.720941 18.141148 -14.052739 -3.242676 7e-06 -18.78727 -1e-06 -0.429711 -8.456043 2.555502 -0.0 -0.0 -0.0 -15.923532 -20.094482 -5.473584 30.41921 -7.190824 1.735925 2e-06 -8.162925 -1e-06 -1.861902 -22.861467 -6.167941 0.0 -3e-06 -2e-06 158.897507 -7.158212 7.318342 74.929001 -1.527448 0.268856 -58.691475 3.516406 21.764881 -43.65044 1.800862 0.838622 -0.999998 -0.0 -0.0 -64.097656 -3.409773 5.499884 126.496948 0.21665 0.341455 -76.921021 11.950316 12.829789 -43.055332 0.901202 1.184741 -1.000002 0.0 0.0 
0.0 0.0 0.0 0.0 -0.0 0.0 -5.585181 46.943699 181.159286 80.621307 -49.738781 101.965958 11.205458 1.986193 -0.943055 -4.409765 -0.102046 -2.412733 27.099751 6.15508 -1.791407 17.989891 -3.878489 3.399068 -2.642812 -0.623973 0.515764 -32.953636 -2.497404 1.387123 6e-06 0.0 -0.0 -0.198483 -0.028325 0.054316 -0.114366 -0.067293 0.120378 -0.09408 0.000513 0.007797 -13.394573 -66.851044 17.808434 83.058853 -7.484463 -42.034222 14.658744 -0.133385 0.121703 33.476048 68.116173 33.11861 17.636629 -26.322731 52.411179 -19.46666 -14.395598 29.410381 -1e-06 -8.774822 -1e-06 16.278057 -18.17054 5.894358 -0.609775 -1.795654 -3.889326 -4.80709 -11.046813 -2.937849 2e-06 -20.976021 3e-06 -5.019973 -25.033562 -4.031878 6e-06 -1e-06 0.0 -10.634535 -5.686971 -3.565586 10.573273 -17.922958 -3.113899 2e-06 -13.821213 0.0 -0.50178 -31.181511 -4.027015 -10.920745 -59.212864 6.829714 -13.982714 -7.150198 -2.87504 13.772731 -8.401495 -3.21824 0.347732 -34.211555 0.771657 -0.96303 -17.733376 2.62102 -0.0 0.0 0.0 -17.346418 -20.095217 -4.201777 21.757557 -1.638376 3.866428 1e-06 -6.338824 2e-06 -1.69759 -22.591753 -6.194006 -0.0 -5e-06 -1e-06 -160.502777 -84.574623 -8.488753 82.992218 -23.955872 -29.513353 31.796734 -0.21622 0.304112 55.365673 69.319412 68.425301 22.182117 -20.375895 49.933304 -16.701813 -16.743526 28.476524 -2e-06 -12.6906 0.0 16.704588 -18.241606 2.211196 -0.10592 -1.513856 -4.27588 -5.03904 -5.612872 -2.953555 5e-06 -11.020524 -1e-06 -6.1113 -15.895336 -3.840469 0.0 1e-06 -0.0 -10.283369 -5.680288 -4.341837 11.028295 -11.302407 -2.372632 -1.38427 -14.238585 -6.320118 -0.625442 -26.924194 -3.827596 -4.024942 -49.464634 -4.49607 -13.708524 -7.363478 -3.720937 18.141151 -14.052739 -3.242673 5e-06 -18.787273 -0.0 -0.429712 -8.456046 2.555503 -0.0 -0.0 -1e-06 -15.923536 -20.094486 -5.473581 30.41921 -7.190827 1.735928 2e-06 -8.162929 0.0 -1.861903 -22.861473 -6.167941 0.0 -2e-06 -0.0 158.911026 -7.785528 6.765872 73.204269 -1.799917 0.359999 -57.796146 3.250487 22.14045 -41.767597 1.792428 0.92622 -1.0 0.0 -0.0 -63.8195 -2.759159 4.652023 124.946541 0.308422 0.371664 -73.903969 12.329767 13.886995 -42.424763 0.868245 1.162058 -1.000001 -0.0 -1e-06 
0.0 0.0 0.0 0.0 -0.0 0.0 -6.088477 47.035755 182.065826 80.619263 -50.356537 102.643982 11.013974 1.781474 -1.067662 -4.574647 -0.346579 -2.647225 26.795675 5.776958 -2.209442 17.532604 -2.720753 3.602945 -2.628211 -0.709765 0.346276 -32.756813 -2.459073 1.175535 5e-06 -0.0 0.0 -0.208877 -0.039368 0.053717 -0.066828 -0.078798 0.122496 -0.061495 -0.00708 0.005038 -12.10505 -66.235527 16.461731 83.04509 -8.069193 -41.19693 13.8771 -0.317916 0.080845 34.408443 68.691429 33.14743 17.636637 -26.322725 52.411182 -19.466658 -14.395596 29.410381 1e-06 -8.774822 -3e-06 16.106062 -18.082144 5.959056 -0.609777 -1.795654 -3.889328 -4.80709 -11.046811 -2.93785 3e-06 -20.976017 1e-06 -5.019971 -25.033556 -4.031881 6e-06 -0.0 2e-06 -10.634535 -5.68697 -3.565588 10.573272 -17.922951 -3.113901 2e-06 -13.821209 0.0 -0.501778 -31.181505 -4.027017 -11.010697 -59.120274 7.068074 -13.982716 -7.150198 -2.875043 13.772728 -8.401493 -3.21824 0.347733 -34.211552 0.771654 -0.963029 -17.733366 2.621018 -0.0 -0.0 -1e-06 -17.346422 -20.095219 -4.201784 21.757559 -1.638375 3.866429 2e-06 -6.338822 1e-06 -1.69759 -22.591745 -6.194007 -1e-06 -6e-06 -3e-06 -172.839417 -84.759621 3.807435 82.488426 -24.43018 -30.858509 38.863338 -0.175474 0.107766 57.586746 67.438629 73.263618 22.182117 -20.375898 49.933327 -16.701809 -16.74353 28.476532 -2e-06 -12.690601 0.0 17.209391 -18.442667 1.997378 -0.10592 -1.513856 -4.275881 -5.039041 -5.612873 -2.953557 4e-06 -11.020524 -2e-06 -6.111298 -15.895332 -3.840471 1e-06 2e-06 -2e-06 -10.283371 -5.680289 -4.341841 11.028293 -11.302402 -2.372631 -1.384269 -14.238583 -6.320121 -0.625439 -26.924189 -3.827601 -4.104373 -49.778805 -4.651107 -13.708526 -7.363479 -3.720939 18.14115 -14.052735 -3.242674 5e-06 -18.787271 -1e-06 -0.429712 -8.456043 2.555504 1e-06 -0.0 0.0 -15.923536 -20.094484 -5.473584 30.41921 -7.190825 1.735926 2e-06 -8.162929 -1e-06 -1.861905 -22.861471 -6.167942 -1e-06 -2e-06 -1e-06 158.592453 -7.91865 6.474032 72.556976 -2.070369 0.478064 -57.173378 3.547891 21.773148 -38.695675 1.817572 1.066297 -0.999999 -0.0 1e-06 -63.503719 -2.705892 3.830951 123.55748 0.341121 0.360764 -70.397331 12.775305 15.442058 -42.128368 0.871441 1.149646 -1.000002 1e-06 -0.0 
